<?xml version="1.0" encoding="UTF-8" standalone="no"?>
<!DOCTYPE svg PUBLIC "-//W3C//DTD SVG 1.1//EN"
 "http://www.w3.org/Graphics/SVG/1.1/DTD/svg11.dtd">
<!-- Generated by graphviz version 2.38.0 (20140413.2041)
 -->
<!-- Title: Tree Pages: 1 -->
<svg width="643pt" height="685pt"
 viewBox="0.00 0.00 642.50 685.00" xmlns="http://www.w3.org/2000/svg" xmlns:xlink="http://www.w3.org/1999/xlink">
<g id="graph0" class="graph" transform="scale(1 1) rotate(0) translate(4 681)">
<title>Tree</title>
<polygon fill="white" stroke="none" points="-4,4 -4,-681 638.5,-681 638.5,4 -4,4"/>
<!-- 0 -->
<g id="node1" class="node"><title>0</title>
<polygon fill="none" stroke="black" points="255.5,-677 129.5,-677 129.5,-609 255.5,-609 255.5,-677"/>
<text text-anchor="middle" x="192.5" y="-661.8" font-family="Times,serif" font-size="14.00">First &lt;= &#45;1.5531</text>
<text text-anchor="middle" x="192.5" y="-646.8" font-family="Times,serif" font-size="14.00">gini = 0.6652</text>
<text text-anchor="middle" x="192.5" y="-631.8" font-family="Times,serif" font-size="14.00">samples = 112</text>
<text text-anchor="middle" x="192.5" y="-616.8" font-family="Times,serif" font-size="14.00">value = [38, 40, 34]</text>
</g>
<!-- 1 -->
<g id="node2" class="node"><title>1</title>
<polygon fill="none" stroke="black" points="182,-565.5 69,-565.5 69,-512.5 182,-512.5 182,-565.5"/>
<text text-anchor="middle" x="125.5" y="-550.3" font-family="Times,serif" font-size="14.00">gini = 0.0</text>
<text text-anchor="middle" x="125.5" y="-535.3" font-family="Times,serif" font-size="14.00">samples = 38</text>
<text text-anchor="middle" x="125.5" y="-520.3" font-family="Times,serif" font-size="14.00">value = [38, 0, 0]</text>
</g>
<!-- 0&#45;&gt;1 -->
<g id="edge1" class="edge"><title>0&#45;&gt;1</title>
<path fill="none" stroke="black" d="M170.747,-608.884C163.451,-597.776 155.303,-585.372 147.954,-574.184"/>
<polygon fill="black" stroke="black" points="150.679,-571.957 142.263,-565.52 144.828,-575.8 150.679,-571.957"/>
<text text-anchor="middle" x="137.193" y="-586.3" font-family="Times,serif" font-size="14.00">True</text>
</g>
<!-- 2 -->
<g id="node3" class="node"><title>2</title>
<polygon fill="none" stroke="black" points="319,-573 200,-573 200,-505 319,-505 319,-573"/>
<text text-anchor="middle" x="259.5" y="-557.8" font-family="Times,serif" font-size="14.00">First &lt;= 1.1428</text>
<text text-anchor="middle" x="259.5" y="-542.8" font-family="Times,serif" font-size="14.00">gini = 0.4967</text>
<text text-anchor="middle" x="259.5" y="-527.8" font-family="Times,serif" font-size="14.00">samples = 74</text>
<text text-anchor="middle" x="259.5" y="-512.8" font-family="Times,serif" font-size="14.00">value = [0, 40, 34]</text>
</g>
<!-- 0&#45;&gt;2 -->
<g id="edge2" class="edge"><title>0&#45;&gt;2</title>
<path fill="none" stroke="black" d="M214.253,-608.884C219.928,-600.243 226.119,-590.819 232.048,-581.793"/>
<polygon fill="black" stroke="black" points="235.062,-583.579 237.627,-573.299 229.211,-579.736 235.062,-583.579"/>
<text text-anchor="middle" x="242.697" y="-594.08" font-family="Times,serif" font-size="14.00">False</text>
</g>
<!-- 3 -->
<g id="node4" class="node"><title>3</title>
<polygon fill="none" stroke="black" points="249.5,-469 131.5,-469 131.5,-401 249.5,-401 249.5,-469"/>
<text text-anchor="middle" x="190.5" y="-453.8" font-family="Times,serif" font-size="14.00">Second &lt;= 1.1025</text>
<text text-anchor="middle" x="190.5" y="-438.8" font-family="Times,serif" font-size="14.00">gini = 0.0555</text>
<text text-anchor="middle" x="190.5" y="-423.8" font-family="Times,serif" font-size="14.00">samples = 35</text>
<text text-anchor="middle" x="190.5" y="-408.8" font-family="Times,serif" font-size="14.00">value = [0, 34, 1]</text>
</g>
<!-- 2&#45;&gt;3 -->
<g id="edge3" class="edge"><title>2&#45;&gt;3</title>
<path fill="none" stroke="black" d="M237.098,-504.884C231.253,-496.243 224.878,-486.819 218.772,-477.793"/>
<polygon fill="black" stroke="black" points="221.528,-475.621 213.026,-469.299 215.73,-479.543 221.528,-475.621"/>
</g>
<!-- 8 -->
<g id="node9" class="node"><title>8</title>
<polygon fill="none" stroke="black" points="385,-469 272,-469 272,-401 385,-401 385,-469"/>
<text text-anchor="middle" x="328.5" y="-453.8" font-family="Times,serif" font-size="14.00">First &lt;= 1.6098</text>
<text text-anchor="middle" x="328.5" y="-438.8" font-family="Times,serif" font-size="14.00">gini = 0.2604</text>
<text text-anchor="middle" x="328.5" y="-423.8" font-family="Times,serif" font-size="14.00">samples = 39</text>
<text text-anchor="middle" x="328.5" y="-408.8" font-family="Times,serif" font-size="14.00">value = [0, 6, 33]</text>
</g>
<!-- 2&#45;&gt;8 -->
<g id="edge8" class="edge"><title>2&#45;&gt;8</title>
<path fill="none" stroke="black" d="M281.902,-504.884C287.747,-496.243 294.122,-486.819 300.228,-477.793"/>
<polygon fill="black" stroke="black" points="303.27,-479.543 305.974,-469.299 297.472,-475.621 303.27,-479.543"/>
</g>
<!-- 4 -->
<g id="node5" class="node"><title>4</title>
<polygon fill="none" stroke="black" points="113,-357.5 0,-357.5 0,-304.5 113,-304.5 113,-357.5"/>
<text text-anchor="middle" x="56.5" y="-342.3" font-family="Times,serif" font-size="14.00">gini = 0.0</text>
<text text-anchor="middle" x="56.5" y="-327.3" font-family="Times,serif" font-size="14.00">samples = 33</text>
<text text-anchor="middle" x="56.5" y="-312.3" font-family="Times,serif" font-size="14.00">value = [0, 33, 0]</text>
</g>
<!-- 3&#45;&gt;4 -->
<g id="edge4" class="edge"><title>3&#45;&gt;4</title>
<path fill="none" stroke="black" d="M146.994,-400.884C131.39,-389.006 113.839,-375.646 98.3763,-363.876"/>
<polygon fill="black" stroke="black" points="100.103,-360.792 90.0262,-357.52 95.8633,-366.362 100.103,-360.792"/>
</g>
<!-- 5 -->
<g id="node6" class="node"><title>5</title>
<polygon fill="none" stroke="black" points="249.5,-365 131.5,-365 131.5,-297 249.5,-297 249.5,-365"/>
<text text-anchor="middle" x="190.5" y="-349.8" font-family="Times,serif" font-size="14.00">Second &lt;= 1.2294</text>
<text text-anchor="middle" x="190.5" y="-334.8" font-family="Times,serif" font-size="14.00">gini = 0.5</text>
<text text-anchor="middle" x="190.5" y="-319.8" font-family="Times,serif" font-size="14.00">samples = 2</text>
<text text-anchor="middle" x="190.5" y="-304.8" font-family="Times,serif" font-size="14.00">value = [0, 1, 1]</text>
</g>
<!-- 3&#45;&gt;5 -->
<g id="edge5" class="edge"><title>3&#45;&gt;5</title>
<path fill="none" stroke="black" d="M190.5,-400.884C190.5,-392.778 190.5,-383.982 190.5,-375.472"/>
<polygon fill="black" stroke="black" points="194,-375.299 190.5,-365.299 187,-375.299 194,-375.299"/>
</g>
<!-- 6 -->
<g id="node7" class="node"><title>6</title>
<polygon fill="none" stroke="black" points="122.5,-253.5 16.5,-253.5 16.5,-200.5 122.5,-200.5 122.5,-253.5"/>
<text text-anchor="middle" x="69.5" y="-238.3" font-family="Times,serif" font-size="14.00">gini = 0.0</text>
<text text-anchor="middle" x="69.5" y="-223.3" font-family="Times,serif" font-size="14.00">samples = 1</text>
<text text-anchor="middle" x="69.5" y="-208.3" font-family="Times,serif" font-size="14.00">value = [0, 0, 1]</text>
</g>
<!-- 5&#45;&gt;6 -->
<g id="edge6" class="edge"><title>5&#45;&gt;6</title>
<path fill="none" stroke="black" d="M151.215,-296.884C137.255,-285.116 121.57,-271.894 107.702,-260.203"/>
<polygon fill="black" stroke="black" points="109.675,-257.289 99.7736,-253.52 105.164,-262.641 109.675,-257.289"/>
</g>
<!-- 7 -->
<g id="node8" class="node"><title>7</title>
<polygon fill="none" stroke="black" points="246.5,-253.5 140.5,-253.5 140.5,-200.5 246.5,-200.5 246.5,-253.5"/>
<text text-anchor="middle" x="193.5" y="-238.3" font-family="Times,serif" font-size="14.00">gini = 0.0</text>
<text text-anchor="middle" x="193.5" y="-223.3" font-family="Times,serif" font-size="14.00">samples = 1</text>
<text text-anchor="middle" x="193.5" y="-208.3" font-family="Times,serif" font-size="14.00">value = [0, 1, 0]</text>
</g>
<!-- 5&#45;&gt;7 -->
<g id="edge7" class="edge"><title>5&#45;&gt;7</title>
<path fill="none" stroke="black" d="M191.474,-296.884C191.788,-286.216 192.137,-274.352 192.455,-263.519"/>
<polygon fill="black" stroke="black" points="195.954,-263.619 192.749,-253.52 188.957,-263.413 195.954,-263.619"/>
</g>
<!-- 9 -->
<g id="node10" class="node"><title>9</title>
<polygon fill="none" stroke="black" points="389.5,-365 267.5,-365 267.5,-297 389.5,-297 389.5,-365"/>
<text text-anchor="middle" x="328.5" y="-349.8" font-family="Times,serif" font-size="14.00">Second &lt;= &#45;0.0639</text>
<text text-anchor="middle" x="328.5" y="-334.8" font-family="Times,serif" font-size="14.00">gini = 0.4898</text>
<text text-anchor="middle" x="328.5" y="-319.8" font-family="Times,serif" font-size="14.00">samples = 14</text>
<text text-anchor="middle" x="328.5" y="-304.8" font-family="Times,serif" font-size="14.00">value = [0, 6, 8]</text>
</g>
<!-- 8&#45;&gt;9 -->
<g id="edge9" class="edge"><title>8&#45;&gt;9</title>
<path fill="none" stroke="black" d="M328.5,-400.884C328.5,-392.778 328.5,-383.982 328.5,-375.472"/>
<polygon fill="black" stroke="black" points="332,-375.299 328.5,-365.299 325,-375.299 332,-375.299"/>
</g>
<!-- 16 -->
<g id="node17" class="node"><title>16</title>
<polygon fill="none" stroke="black" points="521,-357.5 408,-357.5 408,-304.5 521,-304.5 521,-357.5"/>
<text text-anchor="middle" x="464.5" y="-342.3" font-family="Times,serif" font-size="14.00">gini = 0.0</text>
<text text-anchor="middle" x="464.5" y="-327.3" font-family="Times,serif" font-size="14.00">samples = 25</text>
<text text-anchor="middle" x="464.5" y="-312.3" font-family="Times,serif" font-size="14.00">value = [0, 0, 25]</text>
</g>
<!-- 8&#45;&gt;16 -->
<g id="edge16" class="edge"><title>8&#45;&gt;16</title>
<path fill="none" stroke="black" d="M372.655,-400.884C388.639,-388.896 406.635,-375.399 422.434,-363.549"/>
<polygon fill="black" stroke="black" points="424.573,-366.32 430.473,-357.52 420.373,-360.72 424.573,-366.32"/>
</g>
<!-- 10 -->
<g id="node11" class="node"><title>10</title>
<polygon fill="none" stroke="black" points="377.5,-253.5 271.5,-253.5 271.5,-200.5 377.5,-200.5 377.5,-253.5"/>
<text text-anchor="middle" x="324.5" y="-238.3" font-family="Times,serif" font-size="14.00">gini = 0.0</text>
<text text-anchor="middle" x="324.5" y="-223.3" font-family="Times,serif" font-size="14.00">samples = 5</text>
<text text-anchor="middle" x="324.5" y="-208.3" font-family="Times,serif" font-size="14.00">value = [0, 5, 0]</text>
</g>
<!-- 9&#45;&gt;10 -->
<g id="edge10" class="edge"><title>9&#45;&gt;10</title>
<path fill="none" stroke="black" d="M327.201,-296.884C326.783,-286.216 326.318,-274.352 325.893,-263.519"/>
<polygon fill="black" stroke="black" points="329.39,-263.375 325.501,-253.52 322.395,-263.649 329.39,-263.375"/>
</g>
<!-- 11 -->
<g id="node12" class="node"><title>11</title>
<polygon fill="none" stroke="black" points="513.5,-261 395.5,-261 395.5,-193 513.5,-193 513.5,-261"/>
<text text-anchor="middle" x="454.5" y="-245.8" font-family="Times,serif" font-size="14.00">Second &lt;= 0.2661</text>
<text text-anchor="middle" x="454.5" y="-230.8" font-family="Times,serif" font-size="14.00">gini = 0.1975</text>
<text text-anchor="middle" x="454.5" y="-215.8" font-family="Times,serif" font-size="14.00">samples = 9</text>
<text text-anchor="middle" x="454.5" y="-200.8" font-family="Times,serif" font-size="14.00">value = [0, 1, 8]</text>
</g>
<!-- 9&#45;&gt;11 -->
<g id="edge11" class="edge"><title>9&#45;&gt;11</title>
<path fill="none" stroke="black" d="M369.409,-296.884C380.852,-287.62 393.409,-277.455 405.279,-267.845"/>
<polygon fill="black" stroke="black" points="407.795,-270.312 413.365,-261.299 403.391,-264.871 407.795,-270.312"/>
</g>
<!-- 12 -->
<g id="node13" class="node"><title>12</title>
<polygon fill="none" stroke="black" points="442.5,-149.5 336.5,-149.5 336.5,-96.5 442.5,-96.5 442.5,-149.5"/>
<text text-anchor="middle" x="389.5" y="-134.3" font-family="Times,serif" font-size="14.00">gini = 0.0</text>
<text text-anchor="middle" x="389.5" y="-119.3" font-family="Times,serif" font-size="14.00">samples = 5</text>
<text text-anchor="middle" x="389.5" y="-104.3" font-family="Times,serif" font-size="14.00">value = [0, 0, 5]</text>
</g>
<!-- 11&#45;&gt;12 -->
<g id="edge12" class="edge"><title>11&#45;&gt;12</title>
<path fill="none" stroke="black" d="M433.396,-192.884C426.318,-181.776 418.413,-169.372 411.284,-158.184"/>
<polygon fill="black" stroke="black" points="414.088,-156.072 405.763,-149.52 408.185,-159.834 414.088,-156.072"/>
</g>
<!-- 13 -->
<g id="node14" class="node"><title>13</title>
<polygon fill="none" stroke="black" points="578.5,-157 460.5,-157 460.5,-89 578.5,-89 578.5,-157"/>
<text text-anchor="middle" x="519.5" y="-141.8" font-family="Times,serif" font-size="14.00">Second &lt;= 0.4514</text>
<text text-anchor="middle" x="519.5" y="-126.8" font-family="Times,serif" font-size="14.00">gini = 0.375</text>
<text text-anchor="middle" x="519.5" y="-111.8" font-family="Times,serif" font-size="14.00">samples = 4</text>
<text text-anchor="middle" x="519.5" y="-96.8" font-family="Times,serif" font-size="14.00">value = [0, 1, 3]</text>
</g>
<!-- 11&#45;&gt;13 -->
<g id="edge13" class="edge"><title>11&#45;&gt;13</title>
<path fill="none" stroke="black" d="M475.604,-192.884C481.11,-184.243 487.115,-174.819 492.867,-165.793"/>
<polygon fill="black" stroke="black" points="495.857,-167.614 498.28,-157.299 489.954,-163.852 495.857,-167.614"/>
</g>
<!-- 14 -->
<g id="node15" class="node"><title>14</title>
<polygon fill="none" stroke="black" points="510.5,-53 404.5,-53 404.5,-0 510.5,-0 510.5,-53"/>
<text text-anchor="middle" x="457.5" y="-37.8" font-family="Times,serif" font-size="14.00">gini = 0.0</text>
<text text-anchor="middle" x="457.5" y="-22.8" font-family="Times,serif" font-size="14.00">samples = 1</text>
<text text-anchor="middle" x="457.5" y="-7.8" font-family="Times,serif" font-size="14.00">value = [0, 1, 0]</text>
</g>
<!-- 13&#45;&gt;14 -->
<g id="edge14" class="edge"><title>13&#45;&gt;14</title>
<path fill="none" stroke="black" d="M497.815,-88.9485C492.054,-80.1664 485.819,-70.6629 480.014,-61.815"/>
<polygon fill="black" stroke="black" points="482.797,-59.6779 474.385,-53.2367 476.945,-63.5178 482.797,-59.6779"/>
</g>
<!-- 15 -->
<g id="node16" class="node"><title>15</title>
<polygon fill="none" stroke="black" points="634.5,-53 528.5,-53 528.5,-0 634.5,-0 634.5,-53"/>
<text text-anchor="middle" x="581.5" y="-37.8" font-family="Times,serif" font-size="14.00">gini = 0.0</text>
<text text-anchor="middle" x="581.5" y="-22.8" font-family="Times,serif" font-size="14.00">samples = 3</text>
<text text-anchor="middle" x="581.5" y="-7.8" font-family="Times,serif" font-size="14.00">value = [0, 0, 3]</text>
</g>
<!-- 13&#45;&gt;15 -->
<g id="edge15" class="edge"><title>13&#45;&gt;15</title>
<path fill="none" stroke="black" d="M541.185,-88.9485C546.946,-80.1664 553.181,-70.6629 558.986,-61.815"/>
<polygon fill="black" stroke="black" points="562.055,-63.5178 564.615,-53.2367 556.203,-59.6779 562.055,-63.5178"/>
</g>
</g>
</svg>
